<?xml version="1.0" standalone="no"?><!DOCTYPE svg PUBLIC "-//W3C//DTD SVG 1.1//EN" "http://www.w3.org/Graphics/SVG/1.1/DTD/svg11.dtd"><svg t="1681525489863" class="icon" viewBox="0 0 1024 1024" version="1.1" xmlns="http://www.w3.org/2000/svg" p-id="7433" xmlns:xlink="http://www.w3.org/1999/xlink" width="32" height="32"><path d="M512 85.333333C276.48 85.333333 85.333333 276.48 85.333333 512S276.48 938.666667 512 938.666667 938.666667 747.52 938.666667 512 747.52 85.333333 512 85.333333zM771.413333 625.777778c-11.377778 11.377778-29.582222 11.377778-39.822222 0L512 402.773333 293.546667 624.64c-5.688889 5.688889-12.515556 7.964444-20.48 7.964444-6.826667 0-14.791111-2.275556-20.48-7.964444-11.377778-11.377778-11.377778-28.444444 0-39.822222l238.933333-243.484445c10.24-11.377778 29.582222-11.377778 40.96 0l238.933333 243.484445c11.377778 11.377778 11.377778 29.582222 0 40.96z" p-id="7434" fill="#ffffff"></path></svg>