<svg xmlns="http://www.w3.org/2000/svg" viewBox="0 0 48 48" class="design-iconfont">
  <g fill="#0082FF" fill-rule="nonzero">
    <path d="M9.5923748,8.892 C9.5923748,3.99 13.7119657,0 18.7752424,0 L28.839847,0 C33.8907339,0 38,3.98 38,8.872 L38,31.104 C38,36.008 33.882474,40 28.8191974,40 L18.7545928,40 C13.7037059,40 9.5923748,36.018 9.5923748,31.124 L9.5923748,29.244 L9.5923748,8.892 Z" opacity=".40000001" transform="translate(5 4)"/>
    <path d="M27.0747927,18.9076 L21.1389776,13.0896 C20.5254881,12.4896 19.538217,12.4896 18.926759,13.0936 C18.3173324,13.6976 18.3193638,14.6716 18.9308218,15.2716 L22.1810971,18.4576 L1.56419496,18.4576 C0.700840598,18.4576 0,19.1476 0,19.9996 C0,20.8496 0.700840598,21.5376 1.56419496,21.5376 L22.1810971,21.5376 L18.9308218,24.7256 C18.3193638,25.3256 18.3173324,26.2996 18.926759,26.9036 C19.2335037,27.2056 19.6336939,27.3576 20.0359154,27.3576 C20.4340741,27.3576 20.8342643,27.2056 21.1389776,26.9076 L27.0747927,21.0896 C27.3693489,20.7996 27.5359255,20.4076 27.5359255,19.9996 C27.5359255,19.5896 27.3693489,19.1976 27.0747927,18.9076" transform="translate(5 4)"/>
  </g>
</svg>
