<svg xmlns="http://www.w3.org/2000/svg" viewBox="0 0 48 48" class="design-iconfont">
  <g fill="#0082FF" fill-rule="nonzero">
    <path d="M0,8.894 C0,3.992 4.0604783,0 9.04906593,0 L18.9712873,0 C23.9496983,0 28,3.98 28,8.874 L28,31.106 C28,36.01 23.9395217,40 18.9488987,40 L9.03074798,40 C4.05030166,40 0,36.02 0,31.126 L0,29.246 L0,8.894 Z" opacity=".40000001" transform="translate(4 4)"/>
    <path d="M39.557841,18.9096 L33.8662615,13.0916 C33.2780148,12.4916 32.331366,12.4916 31.7450671,13.0956 C31.160716,13.6996 31.1626639,14.6736 31.7489628,15.2736 L34.8674497,18.4596 L31.87752,18.4596 L15.0969049,18.4596 C14.2690742,18.4596 13.5970705,19.1496 13.5970705,19.9996 C13.5970705,20.8516 14.2690742,21.5396 15.0969049,21.5396 L34.8674497,21.5396 L31.7489628,24.7256 C31.1626639,25.3256 31.160716,26.2996 31.7450671,26.9036 C32.0391905,27.2056 32.4229144,27.3576 32.8085861,27.3576 C33.1903621,27.3576 33.574086,27.2056 33.8662615,26.9076 L39.557841,21.0916 C39.8402774,20.8016 40,20.4096 40,19.9996 C40,19.5916 39.8402774,19.1996 39.557841,18.9096" transform="translate(4 4)"/>
  </g>
</svg>
